<svg width="82" height="35" viewBox="0 0 82 35" fill="none" xmlns="http://www.w3.org/2000/svg">
<path d="M60.3701 7.12402H75.5254V14.0762H62.2568V19.3262H75.5254V32H81.8008V1.8125H60.3701V7.12402ZM40.7236 25.7861H51.8594L53.9512 32H60.5547L49.7676 1.77148H42.6309L31.9258 32H38.7754L40.7236 25.7861ZM42.4873 20.5771L46.2607 8.68262L50.1572 20.5771H42.4873ZM9.90039 32.1641C11.2539 32.6152 12.874 32.8408 14.7607 32.8408C18.6982 32.8408 21.9521 31.665 24.5225 29.3135C27.6396 26.4834 29.1982 22.3271 29.1982 16.8447C29.1982 11.3213 27.5986 7.14453 24.3994 4.31445C21.7881 2.00391 18.541 0.848633 14.6582 0.848633C10.748 0.848633 7.4668 2.07227 4.81445 4.51953C1.75195 7.34961 0.220703 11.3076 0.220703 16.3936C0.220703 19.0869 0.548828 21.3428 1.20508 23.1611C1.73828 24.8975 2.52441 26.3398 3.56348 27.4883L0.0771484 30.749L3.37891 34.1943L7.0293 30.749C8.13672 31.4189 9.09375 31.8906 9.90039 32.1641ZM11.2539 26.709L14.3096 23.7969L11.0488 20.3926L7.99316 23.3047C7.51465 22.3203 7.17969 21.459 6.98828 20.7207C6.6875 19.6133 6.53711 18.3213 6.53711 16.8447C6.53711 13.4541 7.23438 10.8359 8.62891 8.99023C10.0098 7.13086 12.0332 6.20117 14.6992 6.20117C17.2012 6.20117 19.1973 7.08984 20.6875 8.86719C22.1777 10.6445 22.9229 13.3037 22.9229 16.8447C22.9229 20.9873 21.8564 23.9541 19.7236 25.7451C18.3428 26.9072 16.6885 27.4883 14.7607 27.4883C14.0361 27.4883 13.3389 27.3994 12.6689 27.2217C12.2998 27.126 11.8281 26.9551 11.2539 26.709Z" fill="black"/>
</svg>
