<svg width="121" height="33" viewBox="0 0 121 33" fill="none" xmlns="http://www.w3.org/2000/svg">
<path d="M17.0977 18.793H2.41406V13.543H17.0977V7.12402H1.10156V1.77148H23.2705V32H0.363281V26.5654H17.0977V18.793ZM33.9961 32H28.1104V1.77148H37.2979L42.7939 25.54L48.249 1.77148H57.334V32H51.4482V11.5537C51.4482 10.9658 51.4551 10.1455 51.4688 9.09277C51.4824 8.02637 51.4893 7.20605 51.4893 6.63184L45.7676 32H39.6357L33.9551 6.63184C33.9551 7.20605 33.9619 8.02637 33.9756 9.09277C33.9893 10.1455 33.9961 10.9658 33.9961 11.5537V32ZM76.5703 32.8408C72.25 32.8408 68.9482 31.665 66.665 29.3135C63.6025 26.4287 62.0713 22.2725 62.0713 16.8447C62.0713 11.3076 63.6025 7.15137 66.665 4.37598C68.9482 2.02441 72.25 0.848633 76.5703 0.848633C80.8906 0.848633 84.1924 2.02441 86.4756 4.37598C89.5244 7.15137 91.0488 11.3076 91.0488 16.8447C91.0488 22.2725 89.5244 26.4287 86.4756 29.3135C84.1924 31.665 80.8906 32.8408 76.5703 32.8408ZM82.5381 24.7197C84.001 22.874 84.7324 20.249 84.7324 16.8447C84.7324 13.4541 83.9941 10.8359 82.5176 8.99023C81.0547 7.13086 79.0723 6.20117 76.5703 6.20117C74.0684 6.20117 72.0723 7.12402 70.582 8.96973C69.0918 10.8154 68.3467 13.4404 68.3467 16.8447C68.3467 20.249 69.0918 22.874 70.582 24.7197C72.0723 26.5654 74.0684 27.4883 76.5703 27.4883C79.0723 27.4883 81.0615 26.5654 82.5381 24.7197ZM113.915 32V18.5059H102.103V32H95.8477V1.77148H102.103V13.2969H113.915V1.77148H120.19V32H113.915Z" fill="black"/>
</svg>
